<?xml version="1.0" encoding="UTF-8" standalone="no"?>
<svg
   xmlns:dc="http://purl.org/dc/elements/1.1/"
   xmlns:cc="http://creativecommons.org/ns#"
   xmlns:rdf="http://www.w3.org/1999/02/22-rdf-syntax-ns#"
   xmlns:svg="http://www.w3.org/2000/svg"
   xmlns="http://www.w3.org/2000/svg"
   viewBox="0 0 745 1052.5"
   height="1052.5"
   width="745"
   xml:space="preserve"
   version="1.1"
   id="svg2"><metadata
     id="metadata8"><rdf:RDF><cc:Work
         rdf:about=""><dc:format>image/svg+xml</dc:format><dc:type
           rdf:resource="http://purl.org/dc/dcmitype/StillImage" /><dc:title></dc:title></cc:Work></rdf:RDF></metadata><defs
     id="defs6"><clipPath
       id="clipPath18"
       clipPathUnits="userSpaceOnUse"><path
         id="path20"
         d="m 350,3950 4260,0 0,950 -4260,0 0,-950 z" /></clipPath></defs><g
     transform="matrix(1.25,0,0,-1.25,0,1052.5)"
     id="g10"><g
       transform="matrix(0.1,0,0,0.1,46.672044,283.81648)"
       id="g12"><g
         id="g14"><g
           clip-path="url(#clipPath18)"
           id="g16"><path
             id="path3403"
             d="m 814.379,3969.95 c -68.828,14.96 -130.117,68.09 -165.117,143.17 -23.711,50.78 -30.242,83.75 -30.242,152.38 l 0,48.91 -259.219,0 0,235.19 259.219,0 0,112.77 -259.219,0 0,235.24 1036.799,0 0,-235.24 -468.01,0 0,-112.77 468.01,0 0,-235.19 -468.28,0 0.739,-42.82 c 0.742,-42.77 0.742,-42.85 7.703,-52.81 3.789,-5.51 10.816,-12.42 15.578,-15.39 l 8.68,-5.39 217.81,-0.66 217.77,-0.63 0,-230.31 -283.79,0.19 c -226.33,0.16 -286.759,0.82 -298.431,3.36 z"
             style="fill:#000000;fill-opacity:1;fill-rule:nonzero;stroke:none" /><path
             id="path3410"
             d="m 2373.4,4501.59 184.8,0 0,-172.81 276.02,0 0,172.81 275.98,0 0,-134.49 c 0,-128.75 -0.2,-134.88 -4.69,-143.71 -5.9,-11.6 -16.88,-20.9 -28.36,-24.1 -5.55,-1.53 -50.98,-2.46 -119.92,-2.46 l -111.02,-0.04 0,-230.39 180.82,0 c 206.56,0 197.42,-0.82 242.77,21.44 72,35.35 125.55,108.21 146.61,199.34 3.63,15.74 4.25,36.6 5.15,166.21 l 1.02,148.2 194.02,0 0,232.82 -194.37,0 0,163.2 -312.03,0 0,-163.2 -275.98,0 0,163.2 -276.02,0 0,-163.2 -184.8,0"
             style="fill:#000000;fill-opacity:1;fill-rule:nonzero;stroke:none" /><path
             id="path3408"
             d="m 3616.6,4328.78 276.02,0 0,336.02 398.47,0 -0.66,-219.38 -0.63,-219.37 -7.46,-9.22 c -4.1,-5.08 -11.09,-11.41 -15.58,-14.03 -7.85,-4.64 -13.13,-4.84 -150.35,-5.46 l -142.19,-0.71 0,-230.35 214.18,0.66 214.22,0.67 24.61,8.67 c 73.59,25.94 131.6,87.93 159.06,169.96 15,44.77 14.33,25.55 14.33,404.77 l 0,346.6 -984.02,0 0,-163.2"
             style="fill:#000000;fill-opacity:1;fill-rule:nonzero;stroke:none" /><path
             id="path3401"
             d="m 2373.4,4897.61 -309.57,0 0,-664.06 -5.59,-10.59 c -3.08,-5.82 -10.19,-13.79 -15.82,-17.77 l -10.23,-7.19 -150.98,-0.66 -151.01,-0.67 0,-115.19 0,-115.2 442.81,1.33 24.65,8.67 c 33.24,11.72 59.33,27.89 85.97,53.2 43.52,41.41 72.58,94.46 84.92,155.12 4.57,22.27 4.85,32.81 4.85,170.35 0,180.8867 0,361.7733 0,542.66 z"
             style="fill:#000000;fill-opacity:1;fill-rule:nonzero;stroke:none" /><path
             id="path22"
             d="m 1451.8,4613.19 0,284.42 276.01,0 0,-568.83 -276.01,0 0,284.41 z"
             style="fill:#000000;fill-opacity:1;fill-rule:nonzero;stroke:none" /></g></g></g></g></svg>